<svg width="1510" height="845" viewBox="0 0 1510 845" fill="none" xmlns="http://www.w3.org/2000/svg">
<path d="M143.535 188.059C10.804 300.073 0.942321 479.465 0.352508 494.022C-3.51666 589.769 23.5911 743.743 125.157 819.428C357.779 992.819 723.628 563.731 1066.9 738.684C1203.55 808.343 1244.08 926.557 1335.9 904.238C1453.91 875.571 1503.38 652.038 1509.45 522.491C1510.91 491.145 1521.67 170.948 1318.98 47.8479C1241.7 0.929214 1162.54 0.383646 1106.72 0.0116684C956.179 -0.980271 933.908 61.5119 776.688 95.709C537.294 147.786 407.182 42.4667 211.765 143.198C181.048 159.044 160.027 174.147 143.535 188.059Z" fill="#FEEA50"/>
</svg>
